<mxfile host="app.diagrams.net" modified="2022-12-24T21:48:47.365Z" agent="5.0 (X11; Linux x86_64) AppleWebKit/537.36 (KHTML, like Gecko) Chrome/106.0.0.0 YaBrowser/22.11.0.2484 Yowser/2.5 Safari/537.36" version="20.7.4" etag="crLq0orRzr_8ktwu8sr1" type="github">
  <diagram id="SJt6UC-6JNxGebT1Sb_m" name="Страница 1">
    <mxGraphModel dx="1337" dy="794" grid="1" gridSize="10" guides="1" tooltips="1" connect="1" arrows="1" fold="1" page="1" pageScale="1" pageWidth="827" pageHeight="1169" math="0" shadow="0">
      <root>
        <mxCell id="0" />
        <mxCell id="1" parent="0" />
        <mxCell id="U-APaqEL9OnMw7nP9l0b-1" value="формирование запроса" style="rounded=0;whiteSpace=wrap;html=1;" vertex="1" parent="1">
          <mxGeometry x="120" y="210" width="120" height="60" as="geometry" />
        </mxCell>
        <mxCell id="U-APaqEL9OnMw7nP9l0b-2" value="проверка на наличие изменений" style="rounded=0;whiteSpace=wrap;html=1;" vertex="1" parent="1">
          <mxGeometry x="250" y="300" width="120" height="60" as="geometry" />
        </mxCell>
        <mxCell id="U-APaqEL9OnMw7nP9l0b-3" value="внесение изменений&lt;span style=&quot;color: rgba(0, 0, 0, 0); font-family: monospace; font-size: 0px; text-align: start;&quot;&gt;%3CmxGraphModel%3E%3Croot%3E%3CmxCell%20id%3D%220%22%2F%3E%3CmxCell%20id%3D%221%22%20parent%3D%220%22%2F%3E%3CmxCell%20id%3D%222%22%20value%3D%22%D1%84%D0%BE%D1%80%D0%BC%D0%B8%D1%80%D0%BE%D0%B2%D0%B0%D0%BD%D0%B8%D0%B5%20%D0%B7%D0%B0%D0%BF%D1%80%D0%BE%D1%81%D0%B0%22%20style%3D%22rounded%3D0%3BwhiteSpace%3Dwrap%3Bhtml%3D1%3B%22%20vertex%3D%221%22%20parent%3D%221%22%3E%3CmxGeometry%20x%3D%22120%22%20y%3D%22210%22%20width%3D%22120%22%20height%3D%2260%22%20as%3D%22geometry%22%2F%3E%3C%2FmxCell%3E%3C%2Froot%3E%3C%2FmxGraphModel%3E&lt;/span&gt;" style="rounded=0;whiteSpace=wrap;html=1;" vertex="1" parent="1">
          <mxGeometry x="410" y="390" width="120" height="60" as="geometry" />
        </mxCell>
        <mxCell id="U-APaqEL9OnMw7nP9l0b-4" value="формирование отчетов" style="rounded=0;whiteSpace=wrap;html=1;" vertex="1" parent="1">
          <mxGeometry x="560" y="470" width="120" height="60" as="geometry" />
        </mxCell>
        <mxCell id="U-APaqEL9OnMw7nP9l0b-5" value="" style="endArrow=classic;html=1;rounded=0;entryX=0;entryY=0.5;entryDx=0;entryDy=0;" edge="1" parent="1" target="U-APaqEL9OnMw7nP9l0b-1">
          <mxGeometry width="50" height="50" relative="1" as="geometry">
            <mxPoint x="10" y="360" as="sourcePoint" />
            <mxPoint x="60" y="310" as="targetPoint" />
            <Array as="points">
              <mxPoint x="10" y="240" />
            </Array>
          </mxGeometry>
        </mxCell>
        <mxCell id="U-APaqEL9OnMw7nP9l0b-6" value="обработанные данные" style="rounded=0;whiteSpace=wrap;html=1;strokeColor=none;" vertex="1" parent="1">
          <mxGeometry x="10" y="160" width="100" height="60" as="geometry" />
        </mxCell>
        <mxCell id="U-APaqEL9OnMw7nP9l0b-7" value="" style="endArrow=classic;html=1;rounded=0;entryX=0.25;entryY=0;entryDx=0;entryDy=0;" edge="1" parent="1" target="U-APaqEL9OnMw7nP9l0b-1">
          <mxGeometry width="50" height="50" relative="1" as="geometry">
            <mxPoint x="390" y="50" as="sourcePoint" />
            <mxPoint x="440" y="380" as="targetPoint" />
            <Array as="points">
              <mxPoint x="390" y="160" />
              <mxPoint x="150" y="160" />
            </Array>
          </mxGeometry>
        </mxCell>
        <mxCell id="U-APaqEL9OnMw7nP9l0b-8" value="" style="endArrow=classic;html=1;rounded=0;exitX=1;exitY=0.5;exitDx=0;exitDy=0;" edge="1" parent="1" source="U-APaqEL9OnMw7nP9l0b-4">
          <mxGeometry width="50" height="50" relative="1" as="geometry">
            <mxPoint x="390" y="430" as="sourcePoint" />
            <mxPoint x="790" y="500" as="targetPoint" />
          </mxGeometry>
        </mxCell>
        <mxCell id="U-APaqEL9OnMw7nP9l0b-9" value="отчеты" style="rounded=0;whiteSpace=wrap;html=1;strokeColor=none;" vertex="1" parent="1">
          <mxGeometry x="690" y="430" width="100" height="60" as="geometry" />
        </mxCell>
        <mxCell id="U-APaqEL9OnMw7nP9l0b-10" value="" style="endArrow=classic;html=1;rounded=0;exitX=1;exitY=0.5;exitDx=0;exitDy=0;entryX=0.5;entryY=0;entryDx=0;entryDy=0;" edge="1" parent="1" source="U-APaqEL9OnMw7nP9l0b-1" target="U-APaqEL9OnMw7nP9l0b-2">
          <mxGeometry width="50" height="50" relative="1" as="geometry">
            <mxPoint x="390" y="430" as="sourcePoint" />
            <mxPoint x="440" y="380" as="targetPoint" />
            <Array as="points">
              <mxPoint x="310" y="240" />
            </Array>
          </mxGeometry>
        </mxCell>
        <mxCell id="U-APaqEL9OnMw7nP9l0b-11" value="" style="endArrow=classic;html=1;rounded=0;exitX=1;exitY=0.5;exitDx=0;exitDy=0;" edge="1" parent="1" source="U-APaqEL9OnMw7nP9l0b-2">
          <mxGeometry width="50" height="50" relative="1" as="geometry">
            <mxPoint x="250" y="250" as="sourcePoint" />
            <mxPoint x="480" y="390" as="targetPoint" />
            <Array as="points">
              <mxPoint x="480" y="330" />
            </Array>
          </mxGeometry>
        </mxCell>
        <mxCell id="U-APaqEL9OnMw7nP9l0b-12" value="" style="endArrow=classic;html=1;rounded=0;exitX=1;exitY=0.5;exitDx=0;exitDy=0;entryX=0.658;entryY=-0.033;entryDx=0;entryDy=0;entryPerimeter=0;" edge="1" parent="1" target="U-APaqEL9OnMw7nP9l0b-4">
          <mxGeometry width="50" height="50" relative="1" as="geometry">
            <mxPoint x="530" y="420" as="sourcePoint" />
            <mxPoint x="640" y="460" as="targetPoint" />
            <Array as="points">
              <mxPoint x="640" y="420" />
            </Array>
          </mxGeometry>
        </mxCell>
        <mxCell id="U-APaqEL9OnMw7nP9l0b-13" value="" style="endArrow=classic;startArrow=classic;html=1;rounded=0;entryX=0.65;entryY=1.017;entryDx=0;entryDy=0;entryPerimeter=0;exitX=0.25;exitY=1;exitDx=0;exitDy=0;" edge="1" parent="1" source="U-APaqEL9OnMw7nP9l0b-1" target="U-APaqEL9OnMw7nP9l0b-4">
          <mxGeometry width="50" height="50" relative="1" as="geometry">
            <mxPoint x="160" y="585" as="sourcePoint" />
            <mxPoint x="210" y="535" as="targetPoint" />
            <Array as="points">
              <mxPoint x="150" y="580" />
              <mxPoint x="638" y="580" />
            </Array>
          </mxGeometry>
        </mxCell>
        <mxCell id="U-APaqEL9OnMw7nP9l0b-14" value="сотрудники" style="rounded=0;whiteSpace=wrap;html=1;strokeColor=none;" vertex="1" parent="1">
          <mxGeometry x="320" y="510" width="100" height="60" as="geometry" />
        </mxCell>
        <mxCell id="U-APaqEL9OnMw7nP9l0b-15" value="заказы" style="rounded=0;whiteSpace=wrap;html=1;strokeColor=none;" vertex="1" parent="1">
          <mxGeometry x="210" y="90" width="100" height="60" as="geometry" />
        </mxCell>
      </root>
    </mxGraphModel>
  </diagram>
</mxfile>
